<svg width="11" height="10" viewBox="0 0 11 10" fill="none" xmlns="http://www.w3.org/2000/svg">
<path d="M2.13889 0L2.83763 1.36113L4.27778 2.02153L2.83763 2.68192L2.13889 4.04305L1.44015 2.68192L0 2.02153L1.44015 1.36113L2.13889 0Z" fill="white"/>
<path d="M9.47222 0.577579L9.97132 1.54981L11 2.02153L9.97132 2.49324L9.47222 3.46547L8.97312 2.49324L7.94444 2.02153L8.97312 1.54981L9.47222 0.577579Z" fill="white"/>
<path d="M9.16667 6.35337L9.56595 7.13115L10.3889 7.50852L9.56595 7.88589L9.16667 8.66368L8.76739 7.88589L7.94444 7.50852L8.76739 7.13115L9.16667 6.35337Z" fill="white"/>
<path fill-rule="evenodd" clip-rule="evenodd" d="M6.83059 5.99462L8.21834 4.68302C8.45699 4.45746 8.45699 4.09176 8.21834 3.8662L7.3541 3.04938C7.11545 2.82382 6.72851 2.82382 6.48986 3.04938L4.98409 4.47253C4.98273 4.47381 4.98138 4.47509 4.98004 4.47638L1.04321 8.19719C0.80456 8.42275 0.80456 8.78845 1.04321 9.01401L1.90746 9.83083C2.14611 10.0564 2.53304 10.0564 2.7717 9.83083L6.82654 5.99849C6.8279 5.9972 6.82925 5.99591 6.83059 5.99462ZM6.82652 5.18165L5.9623 4.36485L6.92198 3.45779L7.78622 4.27461L6.82652 5.18165Z" fill="white"/>
</svg>
