<svg width="18" height="18" viewBox="0 0 18 18" fill="none" xmlns="http://www.w3.org/2000/svg">
<path d="M6.59337 3.77244L7.35982 2.67679C7.54693 2.40932 7.8528 2.25 8.17923 2.25H9.07211C9.39731 2.25 9.7022 2.40814 9.88953 2.67396L10.6469 3.74872M6.59337 3.77244C6.35801 4.10646 5.96678 4.27013 5.55153 4.24095M6.59337 3.77244C6.35686 4.10566 5.96678 4.27149 5.55153 4.24095M5.55153 4.24095L4.18777 4.15578C3.86795 4.13581 3.55792 4.27032 3.35401 4.51753L2.79868 5.19079C2.58086 5.45486 2.51325 5.812 2.61947 6.13741L3.00856 7.3294M3.00856 7.3294C3.06891 7.52403 3.07663 7.73253 3.03344 7.92945M3.00856 7.3294C3.06977 7.52368 3.0772 7.73177 3.03316 7.93147M3.03344 7.92945C2.98969 8.12404 2.89589 8.30778 2.75661 8.45657M3.03344 7.92945L3.03316 7.93147M2.75661 8.45657L1.86847 9.40676C1.6385 9.6528 1.54782 9.99807 1.62721 10.3254L1.81761 11.1102C1.89647 11.4353 2.13264 11.6994 2.4469 11.814L3.67033 12.26C3.86366 12.3344 4.03067 12.4554 4.15708 12.6078M2.75661 8.45657C2.89674 8.309 2.98969 8.12585 3.03316 7.93147M4.15708 12.6078C4.28262 12.7606 4.36813 12.945 4.40131 13.1447M4.15708 12.6078C4.28377 12.7606 4.36956 12.9445 4.40131 13.1447M4.15708 12.6078L4.15507 12.6056C4.14678 12.5956 4.13791 12.5852 4.12933 12.5755M4.40131 13.1447L4.60929 14.4156C4.66289 14.7431 4.87554 15.0227 5.17687 15.1619L5.97893 15.5323C6.2689 15.6663 6.60541 15.6536 6.8845 15.4983L8.04159 14.8543M8.04159 14.8543C8.22148 14.7538 8.42224 14.7034 8.623 14.7032M8.04159 14.8543C8.1128 14.814 8.18744 14.7818 8.26409 14.7577C8.38048 14.721 8.50174 14.7029 8.623 14.7032M8.623 14.7032C8.72738 14.7034 8.83177 14.7171 8.93358 14.7442C9.02824 14.7695 9.12032 14.8062 9.20755 14.8543M8.623 14.7032C8.82462 14.7029 9.02652 14.7533 9.20755 14.8543M9.20755 14.8543L10.425 15.5099C10.7053 15.6608 11.0407 15.6693 11.3282 15.5327L12.1267 15.1533C12.427 15.0107 12.6368 14.7281 12.6864 14.3993L12.8719 13.1701M12.8719 13.1701C12.9036 12.9693 12.988 12.7835 13.1132 12.6293M12.8719 13.1701C12.9025 12.9689 12.9874 12.7833 13.1132 12.6293M13.1132 12.6293C13.2376 12.4768 13.4026 12.3552 13.5948 12.2801M13.1132 12.6293C13.2373 12.4762 13.4018 12.3543 13.5948 12.2801M13.5948 12.2801L14.8358 11.7963C15.1442 11.676 15.3731 11.411 15.4472 11.0884L15.6315 10.2856C15.7056 9.9628 15.6151 9.6242 15.3897 9.38145L14.4928 8.41543M14.4928 8.41543C14.351 8.26612 14.252 8.08777 14.204 7.89822M14.4928 8.41543C14.4262 8.34569 14.369 8.26946 14.3224 8.18863C14.2692 8.09685 14.2294 7.99915 14.204 7.89822M14.204 7.89822C14.1568 7.71003 14.1596 7.5106 14.2194 7.31758L14.6049 6.08841C14.7062 5.76537 14.6372 5.41302 14.4215 5.15207L13.8853 4.50326C13.679 4.25371 13.3647 4.11946 13.0418 4.14299L11.6973 4.24095M11.6973 4.24095C11.4908 4.25545 11.2878 4.21633 11.1071 4.13216M11.6973 4.24095C11.4906 4.25629 11.2878 4.21685 11.1071 4.13216M11.1071 4.13216C10.9252 4.04692 10.7656 3.91583 10.6469 3.74872M11.1071 4.13216C10.9249 4.04723 10.765 3.91649 10.6469 3.74872M3.03316 7.93147L3.03373 7.92851M10.9226 9.00716C10.9226 10.266 9.87361 11.2865 8.57981 11.2865C7.28602 11.2865 6.23704 10.266 6.23704 9.00716C6.23704 7.74832 7.28602 6.72786 8.57981 6.72786C9.87361 6.72786 10.9226 7.74832 10.9226 9.00716Z" stroke="#4F4D55" stroke-width="1.3"/>
</svg>
